# xmcd CD database file
#
# Track frame offsets:
#	150
#	49724
#	100719
#
# Disc length: 1880 seconds
#
# Revision: 0
# Processed by: cddbd v1.5.1PL2 Copyright (c) Steve Scherf et al.
# Submitted via: CDex 1.51
#
DISCID=1a075603
DTITLE=Mick Taylor - Live - The House of Blues - 07/20/99 - Disk 2
DYEAR=1999
DGENRE=Blues
TTITLE0=Blues in The Morning
TTITLE1=Red House
TTITLE2=Can't You Hear Me Knocking - Band Introduction
EXTD=YEAR: 1999
EXTT0=
EXTT1=
EXTT2=
PLAYORDER=
